<svg width="83" height="18" viewBox="0 0 83 18" fill="none" xmlns="http://www.w3.org/2000/svg">
<g clip-path="url(#clip0_2902_467)">
<path d="M4.17715 0.577494C2.0882 0.577494 0.394775 2.26685 0.394775 4.35075V8.05371L3.04128 5.58577C5.11454 3.6524 8.47592 3.6524 10.5492 5.58577L14.515 9.28402C14.6292 9.39055 14.6292 9.57129 14.515 9.67781L6.21003 17.4224H13.498C15.5869 17.4224 17.2804 15.7331 17.2804 13.6492V4.35075C17.2804 2.26684 15.5869 0.577494 13.498 0.577494H4.17715Z" fill="#020617"/>
<path d="M82.4119 2.38235V15.0161H79.7422V2.38235H82.4119Z" fill="#020617"/>
<path d="M78.135 10.4398C78.135 11.3975 77.9243 12.2384 77.5028 12.9625C77.093 13.6866 76.4959 14.2414 75.7115 14.6268C74.9389 15.0122 74.0374 15.2049 73.0072 15.2049C71.9535 15.2049 71.0403 15.0122 70.2677 14.6268C69.495 14.2414 68.8979 13.6866 68.4764 12.9625C68.0667 12.2384 67.8618 11.3975 67.8618 10.4398V2.46882H70.5311V10.4398C70.5311 11.2573 70.7418 11.8822 71.1633 12.3144C71.5964 12.7464 72.2111 12.9625 73.0072 12.9625C73.7798 12.9625 74.3828 12.7464 74.8159 12.3144C75.2491 11.8822 75.4657 11.2573 75.4657 10.4398V2.46882H78.135V10.4398Z" fill="#020617"/>
<path d="M66.1377 14.9249H63.5913L63.5386 13.5759C63.2811 14.0781 62.9123 14.4636 62.4323 14.7322C61.9522 15.0008 61.3844 15.135 60.7289 15.135C59.8859 15.135 59.1659 14.9249 58.5688 14.5044C57.9835 14.0839 57.5386 13.5117 57.2342 12.7876C56.9416 12.0518 56.7952 11.2167 56.7952 10.2824C56.7952 9.34804 56.9416 8.51881 57.2342 7.79473C57.5386 7.05894 57.9835 6.48082 58.5688 6.06037C59.1659 5.63993 59.8859 5.4297 60.7289 5.4297C61.3493 5.4297 61.8938 5.55817 62.3621 5.81511C62.8303 6.07205 63.2049 6.44579 63.4859 6.93631V5.63993H66.1377V14.9249ZM59.4995 10.2824C59.4995 11.0999 59.6752 11.7832 60.0264 12.3321C60.3893 12.8693 60.8986 13.1379 61.5542 13.1379C62.0108 13.1379 62.3913 13.0095 62.6957 12.7525C63.0118 12.4956 63.246 12.1511 63.3981 11.7189C63.562 11.2751 63.644 10.7963 63.644 10.2824C63.644 9.7451 63.562 9.2605 63.3981 8.82833C63.246 8.38455 63.0118 8.03415 62.6957 7.77721C62.3913 7.52026 62.0108 7.39179 61.5542 7.39179C60.8752 7.39179 60.3601 7.66626 60.0089 8.21519C59.6693 8.7524 59.4995 9.44148 59.4995 10.2824Z" fill="#020617"/>
<path d="M49.8104 5.63993L49.9158 8.35534L49.5821 8.2502C49.7109 7.25749 50.0446 6.53921 50.5831 6.09541C51.1334 5.6516 51.8241 5.4297 52.6553 5.4297C53.6622 5.4297 54.4466 5.74504 55.0085 6.37571C55.5704 7.00638 55.8514 7.8648 55.8514 8.95098V14.9249H53.2173V9.82692C53.2173 9.03271 53.1119 8.44878 52.9011 8.07502C52.6904 7.70129 52.3158 7.51443 51.7773 7.51443C51.227 7.51443 50.8055 7.71297 50.5128 8.11007C50.2202 8.50711 50.0739 9.07943 50.0739 9.82692V14.9249H47.4397V5.63993H49.8104Z" fill="#020617"/>
<path d="M39.5566 5.63986L41.8747 12.1744L44.1226 5.63986H46.6162L42.9635 15.8182C42.7411 16.4139 42.4191 16.8518 41.9977 17.1321C41.5879 17.4124 41.0435 17.5526 40.3645 17.5526H38.6962V15.643H39.8727C40.1537 15.643 40.3703 15.5963 40.5226 15.5029C40.6864 15.4095 40.8152 15.246 40.9088 15.0124L41.1372 14.4518H40.3996L37.0454 5.63986H39.5566Z" fill="#020617"/>
<path d="M26.176 2.38235L29.3545 11.5818L32.4979 2.38235H36.0804V15.0161H33.3935V6.75966L30.4784 14.9805H28.1955L25.2804 6.75966V15.0161H22.6111V2.38235H26.176Z" fill="#020617"/>
</g>
<defs>
<clipPath id="clip0_2902_467">
<rect width="83" height="18" fill="white"/>
</clipPath>
</defs>
</svg>
